<svg width="54" height="54" viewBox="0 0 54 54" fill="none" xmlns="http://www.w3.org/2000/svg">
<g clip-path="url(#clip0_102_565)">
<path d="M26.9143 53.5676C41.6171 53.5676 53.536 41.6487 53.536 26.946C53.536 12.2432 41.6171 0.324341 26.9143 0.324341C12.2116 0.324341 0.292725 12.2432 0.292725 26.946C0.292725 41.6487 12.2116 53.5676 26.9143 53.5676Z" fill="#FFD05D"/>
<path d="M40.8431 4.22412C43.4935 8.3638 45.0303 13.2843 45.0303 18.5648C45.0303 33.2675 33.1115 45.1864 18.4087 45.1864C13.3026 45.1864 8.53366 43.7469 4.47998 41.2549C9.2104 48.6403 17.4898 53.5359 26.9144 53.5359C41.6172 53.5359 53.536 41.6171 53.536 26.9143C53.536 17.3176 48.457 8.90927 40.8431 4.22412Z" fill="#FDC453"/>
<path d="M3.91189 29.7548C3.91189 16.1045 14.9774 5.03892 28.6278 5.03892C36.6061 5.03892 43.7017 8.82099 48.2194 14.6876C43.9507 7.27738 35.952 2.28894 26.7877 2.28894C13.1373 2.28894 2.07178 13.3545 2.07178 27.0048C2.07178 32.6768 3.98432 37.9006 7.19602 42.072C5.10694 38.4461 3.91189 34.2408 3.91189 29.7548Z" fill="#FFD77F"/>
<path d="M32.5342 37.6493C31.02 36.3366 28.9672 35.5965 26.912 35.6372C24.8931 35.644 22.8584 36.3819 21.3283 37.6629C20.5565 38.317 19.9115 39.1137 19.4611 39.9738C18.9858 40.9086 18.7413 41.8501 18.73 42.7736C18.7277 42.9954 18.8658 43.1923 19.074 43.2647C19.2823 43.3372 19.5131 43.2693 19.6489 43.0927C20.2012 42.3798 20.724 41.8139 21.2446 41.3635C21.8059 40.8859 22.4034 40.4876 23.0191 40.1798C24.2458 39.5664 25.5993 39.2405 26.9369 39.2337C28.3085 39.2224 29.6077 39.5325 30.8073 40.1549C32.0408 40.7864 33.1748 41.7754 34.1729 43.0905C34.2725 43.2217 34.4241 43.2942 34.5826 43.2942C34.6392 43.2942 34.6957 43.2851 34.7501 43.267C34.9606 43.1946 35.0986 42.9954 35.0964 42.7736C35.0692 40.9108 34.1095 38.996 32.5342 37.6493Z" fill="#5E4939"/>
<path d="M46.076 31.2577C45.7274 31.1558 45.3879 31.0608 45.0416 30.9634C44.3219 30.762 43.6406 30.5719 42.9842 30.3433C41.9974 30.0106 41.1102 29.6326 40.2727 29.1912C39.3923 28.725 38.591 28.2044 37.8238 27.6023C36.9841 26.9505 36.2055 26.1877 35.488 25.4612C35.4133 25.3865 35.2979 25.3639 35.2005 25.4069C35.1032 25.4499 35.0421 25.5495 35.0466 25.6559C35.1009 26.783 35.5468 27.9486 36.3345 29.026C37.052 29.997 38.0139 30.8141 39.1139 31.3889C40.146 31.9322 41.3071 32.2649 42.4704 32.3531L42.6062 32.3622C42.7669 32.3712 42.9276 32.3758 43.0838 32.3758C44.1996 32.3758 45.2182 32.163 46.1144 31.7398C46.2118 31.6945 46.2706 31.5926 46.2616 31.4863C46.2525 31.3799 46.1778 31.2871 46.076 31.2577Z" fill="#303030"/>
<path d="M18.6282 25.4069C18.5309 25.3639 18.4155 25.3865 18.3408 25.4612C17.6233 26.1877 16.8447 26.9505 16.005 27.6023C15.2377 28.2044 14.4365 28.725 13.556 29.1912C12.7186 29.6326 11.8314 30.0106 10.8445 30.3433C10.1882 30.5719 9.50916 30.762 8.77357 30.968C8.44312 31.0608 8.10361 31.1558 7.75279 31.2577C7.65094 31.2871 7.57625 31.3799 7.5672 31.484C7.55814 31.5904 7.61699 31.6922 7.71432 31.7375C8.61061 32.1607 9.62685 32.3735 10.745 32.3735C10.9034 32.3735 11.0618 32.369 11.2225 32.3599L11.3583 32.3509C12.5217 32.2626 13.6805 31.9299 14.7126 31.3867C15.8126 30.8095 16.7745 29.9925 17.492 29.0215C18.2797 27.9464 18.7256 26.7807 18.7799 25.6513C18.7889 25.5495 18.7256 25.4499 18.6282 25.4069Z" fill="#303030"/>
</g>
<defs>
<clipPath id="clip0_102_565">
<rect width="53.2432" height="53.2432" fill="white" transform="translate(0.292725 0.324341)"/>
</clipPath>
</defs>
</svg>
