<svg width="54" height="55" viewBox="0 0 54 55" fill="none" xmlns="http://www.w3.org/2000/svg">
<g clip-path="url(#clip0_102_632)">
<path d="M26.9143 54.0946C41.6171 54.0946 53.536 42.1757 53.536 27.4729C53.536 12.7702 41.6171 0.851318 26.9143 0.851318C12.2116 0.851318 0.292725 12.7702 0.292725 27.4729C0.292725 42.1757 12.2116 54.0946 26.9143 54.0946Z" fill="#FFD05D"/>
<path d="M40.8431 4.7511C43.4935 8.89078 45.0303 13.8113 45.0303 19.0917C45.0303 33.7945 33.1115 45.7134 18.4087 45.7134C13.3026 45.7134 8.53366 44.2739 4.47998 41.7819C9.2104 49.1672 17.4898 54.0629 26.9121 54.0629C41.6149 54.0629 53.5337 42.144 53.5337 27.4413C53.536 17.8446 48.457 9.43625 40.8431 4.7511Z" fill="#FDC453"/>
<path d="M3.91189 30.2818C3.91189 16.6315 14.9774 5.5659 28.6278 5.5659C36.6061 5.5659 43.7017 9.34797 48.2194 15.2146C43.9507 7.80436 35.952 2.81592 26.7877 2.81592C13.1373 2.81592 2.07178 13.8815 2.07178 27.5318C2.07178 33.2038 3.98432 38.4276 7.19602 42.599C5.10694 38.9731 3.91189 34.7677 3.91189 30.2818Z" fill="#FFD77F"/>
<path d="M17.1072 24.3201C18.191 24.3201 19.0696 22.8396 19.0696 21.0133C19.0696 19.187 18.191 17.7065 17.1072 17.7065C16.0235 17.7065 15.1449 19.187 15.1449 21.0133C15.1449 22.8396 16.0235 24.3201 17.1072 24.3201Z" fill="#303030"/>
<path d="M36.7215 24.3201C37.8053 24.3201 38.6838 22.8396 38.6838 21.0133C38.6838 19.187 37.8053 17.7065 36.7215 17.7065C35.6377 17.7065 34.7592 19.187 34.7592 21.0133C34.7592 22.8396 35.6377 24.3201 36.7215 24.3201Z" fill="#303030"/>
<path d="M34.2522 10.4548C34.5396 10.5385 34.818 10.6155 35.0896 10.6924C35.6872 10.8599 36.253 11.0184 36.7985 11.2062C37.6133 11.4824 38.3489 11.7947 39.0415 12.1591C39.7703 12.5461 40.4334 12.9762 41.0694 13.4741C41.762 14.0128 42.4071 14.642 42.9978 15.2418C43.0318 15.2758 43.0838 15.2848 43.1268 15.2667C43.1698 15.2486 43.1993 15.2033 43.1947 15.1558C43.1495 14.2459 42.7919 13.3066 42.1536 12.4375C41.5719 11.6521 40.7933 10.9889 39.9015 10.5227C39.0618 10.0813 38.1248 9.812 37.181 9.73958C37.1448 9.73731 37.1086 9.73505 37.0723 9.73279C36.0154 9.6762 35.0602 9.84595 34.2341 10.2375C34.1911 10.2579 34.1639 10.3032 34.1685 10.3507C34.173 10.4005 34.2069 10.4412 34.2522 10.4548Z" fill="#414042"/>
<path d="M19.5765 10.4548C19.2891 10.5385 19.0107 10.6155 18.7391 10.6924C18.1416 10.8599 17.5757 11.0184 17.0303 11.2062C16.2154 11.4824 15.4799 11.7947 14.7873 12.1591C14.0585 12.5461 13.3953 12.9762 12.7593 13.4741C12.0667 14.0128 11.4217 14.642 10.8309 15.2418C10.797 15.2758 10.7449 15.2848 10.7019 15.2667C10.6589 15.2486 10.6295 15.2033 10.634 15.1558C10.6793 14.2459 11.0369 13.3066 11.6751 12.4375C12.2568 11.6521 13.0354 10.9889 13.9272 10.5227C14.7669 10.0813 15.7039 9.812 16.6477 9.73958C16.684 9.73731 16.7202 9.73505 16.7564 9.73279C17.8134 9.6762 18.7685 9.84595 19.5946 10.2375C19.6376 10.2579 19.6648 10.3032 19.6603 10.3507C19.6557 10.4005 19.6218 10.4412 19.5765 10.4548Z" fill="#414042"/>
<path d="M36.7214 39.2605C36.1533 33.3803 31.9661 28.8196 26.8917 28.831C21.8172 28.8423 17.6504 33.421 17.1072 39.3035L36.7214 39.2605Z" fill="#695342"/>
<path d="M17.1072 39.3035C17.1072 39.3035 25.3639 31.0174 36.7214 39.2605L17.1072 39.3035Z" fill="#F06669"/>
</g>
<defs>
<clipPath id="clip0_102_632">
<rect width="53.2432" height="53.2432" fill="white" transform="translate(0.292725 0.851318)"/>
</clipPath>
</defs>
</svg>
