<svg width="54" height="55" viewBox="0 0 54 55" fill="none" xmlns="http://www.w3.org/2000/svg">
<g clip-path="url(#clip0_102_597)">
<path d="M45.7382 46.3511C56.1345 35.9548 56.1345 19.0991 45.7382 8.70283C35.3419 -1.69346 18.4862 -1.69346 8.0899 8.70283C-2.30639 19.0991 -2.30639 35.9548 8.0899 46.3511C18.4862 56.7474 35.3419 56.7474 45.7382 46.3511Z" fill="#FFD05D"/>
<path d="M40.8431 4.80518C43.4935 8.94486 45.0303 13.8654 45.0303 19.1458C45.0303 33.8486 33.1115 45.7674 18.4087 45.7674C13.3026 45.7674 8.53366 44.3279 4.47998 41.836C9.2104 49.2213 17.4898 54.117 26.9121 54.117C41.6149 54.117 53.5337 42.1981 53.5337 27.4953C53.536 17.8987 48.457 9.49033 40.8431 4.80518Z" fill="#FDC453"/>
<path d="M3.91189 30.3358C3.91189 16.6855 14.9774 5.61998 28.6278 5.61998C36.6061 5.61998 43.7017 9.40205 48.2194 15.2687C43.9507 7.85844 35.952 2.87 26.7877 2.87C13.1373 2.87 2.07178 13.9356 2.07178 27.5859C2.07178 33.2578 3.98432 38.4817 7.19602 42.653C5.10694 39.0271 3.91189 34.8218 3.91189 30.3358Z" fill="#FFD77F"/>
<path d="M17.1072 24.3742C18.191 24.3742 19.0696 22.8937 19.0696 21.0674C19.0696 19.2411 18.191 17.7606 17.1072 17.7606C16.0235 17.7606 15.1449 19.2411 15.1449 21.0674C15.1449 22.8937 16.0235 24.3742 17.1072 24.3742Z" fill="#303030"/>
<path d="M36.7215 24.3742C37.8053 24.3742 38.6838 22.8937 38.6838 21.0674C38.6838 19.2411 37.8053 17.7606 36.7215 17.7606C35.6377 17.7606 34.7592 19.2411 34.7592 21.0674C34.7592 22.8937 35.6377 24.3742 36.7215 24.3742Z" fill="#303030"/>
<path d="M26.9144 43.1464C29.5695 43.1464 31.7218 39.4974 31.7218 34.9961C31.7218 30.4947 29.5695 26.8457 26.9144 26.8457C24.2594 26.8457 22.1071 30.4947 22.1071 34.9961C22.1071 39.4974 24.2594 43.1464 26.9144 43.1464Z" fill="#695342"/>
<path d="M30.9727 39.3643C27.4645 37.4382 24.6104 38.5291 22.9581 39.6246C23.825 41.7522 25.2735 43.1464 26.9145 43.1464C28.6211 43.1464 30.1194 41.6367 30.9727 39.3643Z" fill="#F06669"/>
</g>
<defs>
<clipPath id="clip0_102_597">
<rect width="53.2432" height="53.2432" fill="white" transform="translate(0.292725 0.905396)"/>
</clipPath>
</defs>
</svg>
