<svg width="54" height="54" viewBox="0 0 54 54" fill="none" xmlns="http://www.w3.org/2000/svg">
<g clip-path="url(#clip0_102_579)">
<path d="M26.9143 53.6217C41.6171 53.6217 53.536 41.7028 53.536 27C53.536 12.2973 41.6171 0.378418 26.9143 0.378418C12.2116 0.378418 0.292725 12.2973 0.292725 27C0.292725 41.7028 12.2116 53.6217 26.9143 53.6217Z" fill="#FFD05D"/>
<path d="M40.8431 4.2782C43.4935 8.41788 45.0303 13.3384 45.0303 18.6188C45.0303 33.3216 33.1115 45.2405 18.4087 45.2405C13.3026 45.2405 8.53366 43.801 4.47998 41.309C9.2104 48.6943 17.4898 53.59 26.9121 53.59C41.6149 53.59 53.5337 41.6711 53.5337 26.9684C53.536 17.3717 48.457 8.96335 40.8431 4.2782Z" fill="#FDC453"/>
<path d="M3.91189 29.8089C3.91189 16.1586 14.9774 5.093 28.6278 5.093C36.6061 5.093 43.7017 8.87507 48.2194 14.7417C43.9507 7.33146 35.952 2.34302 26.7877 2.34302C13.1373 2.34302 2.07178 13.4086 2.07178 27.0589C2.07178 32.7309 3.98432 37.9547 7.19602 42.1261C5.10694 38.5002 3.91189 34.2948 3.91189 29.8089Z" fill="#FFD77F"/>
<path d="M20.9017 23.5444C21.6764 20.2635 19.6447 16.9757 16.3638 16.201C13.0828 15.4262 9.79504 17.4579 9.02032 20.7389C8.24559 24.0198 10.2773 27.3076 13.5582 28.0823C16.8392 28.8571 20.127 26.8254 20.9017 23.5444Z" fill="white"/>
<path d="M19.2416 17.7927C18.1393 16.7086 16.6296 16.0364 14.9616 16.0364C13.8344 16.0364 12.7842 16.3465 11.8789 16.8783C11.6933 17.116 11.5756 17.3808 11.5484 17.6683C11.4284 18.9425 13.0716 20.1376 15.2173 20.3368C17.363 20.5382 19.2008 19.6691 19.3185 18.3948C19.3389 18.1911 19.3072 17.9897 19.2416 17.7927Z" fill="#303030"/>
<path d="M44.8092 23.5466C45.5839 20.2657 43.5522 16.9779 40.2712 16.2032C36.9903 15.4284 33.7025 17.4601 32.9278 20.7411C32.1531 24.022 34.1848 27.3098 37.4657 28.0845C40.7467 28.8593 44.0344 26.8276 44.8092 23.5466Z" fill="white"/>
<path d="M43.1471 17.7927C42.0448 16.7086 40.5352 16.0364 38.8671 16.0364C37.7399 16.0364 36.6897 16.3465 35.7844 16.8783C35.5988 17.116 35.4811 17.3808 35.4539 17.6683C35.334 18.9425 36.9772 20.1376 39.1228 20.3368C41.2685 20.5382 43.1063 19.6691 43.224 18.3948C43.2444 18.1911 43.215 17.9897 43.1471 17.7927Z" fill="#303030"/>
<path d="M36.8211 33.1021C35.5491 31.8437 33.8109 30.918 31.7897 30.4246C29.945 29.9809 27.9601 29.9447 26.0475 30.3204C24.1803 30.6826 22.3583 31.4363 20.7762 32.5068C19.0968 33.6544 17.7931 35.0237 16.9036 36.5786C16.7678 36.8163 16.8017 37.1173 16.9896 37.3165C17.1095 37.4455 17.277 37.5134 17.4445 37.5134C17.5373 37.5134 17.6324 37.493 17.7206 37.45L18.3046 37.1626C19.6762 36.4836 20.9708 35.843 22.2836 35.3292C23.7864 34.7317 25.2916 34.2836 26.7582 34.0007C28.286 33.7064 29.8364 33.5729 31.3687 33.6046C32.7901 33.6249 34.302 33.797 36.2666 34.1614C36.5359 34.2111 36.8075 34.0799 36.9343 33.8354C37.0633 33.591 37.0158 33.2945 36.8211 33.1021Z" fill="#5E4939"/>
</g>
<defs>
<clipPath id="clip0_102_579">
<rect width="53.2432" height="53.2432" fill="white" transform="translate(0.292725 0.378418)"/>
</clipPath>
</defs>
</svg>
