<svg width="54" height="54" viewBox="0 0 54 54" fill="none" xmlns="http://www.w3.org/2000/svg">
<g clip-path="url(#clip0_102_615)">
<path d="M26.9143 53.6756C41.6171 53.6756 53.536 41.7567 53.536 27.054C53.536 12.3513 41.6171 0.432373 26.9143 0.432373C12.2116 0.432373 0.292725 12.3513 0.292725 27.054C0.292725 41.7567 12.2116 53.6756 26.9143 53.6756Z" fill="#FFD05D"/>
<path d="M40.8431 4.33215C43.4935 8.47184 45.0303 13.3924 45.0303 18.6728C45.0303 33.3756 33.1115 45.2944 18.4087 45.2944C13.3026 45.2944 8.53366 43.8549 4.47998 41.363C9.2104 48.7483 17.4898 53.6439 26.9121 53.6439C41.6149 53.6439 53.5337 41.7251 53.5337 27.0223C53.536 17.4257 48.457 9.01731 40.8431 4.33215Z" fill="#FDC453"/>
<path d="M3.91189 29.8628C3.91189 16.2125 14.9774 5.14695 28.6278 5.14695C36.6061 5.14695 43.7017 8.92902 48.2194 14.7956C43.9507 7.38541 35.952 2.39697 26.7877 2.39697C13.1373 2.39697 2.07178 13.4625 2.07178 27.1128C2.07178 32.7848 3.98432 38.0087 7.19602 42.18C5.10694 38.5541 3.91189 34.3488 3.91189 29.8628Z" fill="#FFD77F"/>
<path d="M16.0027 31.0805C15.3169 30.4151 14.2192 31.1507 14.5746 32.0379C16.5414 36.9517 21.3465 40.4237 26.9642 40.4237C32.4868 40.4237 37.2262 37.0671 39.252 32.2824C39.6209 31.4087 38.5141 30.6528 37.8328 31.3137C33.9353 35.0935 25.665 40.469 16.0027 31.0805Z" fill="#5E4939"/>
<path d="M17.1072 25.5964C18.191 25.5964 19.0696 24.116 19.0696 22.2897C19.0696 20.4634 18.191 18.9829 17.1072 18.9829C16.0235 18.9829 15.1449 20.4634 15.1449 22.2897C15.1449 24.116 16.0235 25.5964 17.1072 25.5964Z" fill="#303030"/>
<path d="M36.7215 25.5964C37.8053 25.5964 38.6838 24.116 38.6838 22.2897C38.6838 20.4634 37.8053 18.9829 36.7215 18.9829C35.6377 18.9829 34.7592 20.4634 34.7592 22.2897C34.7592 24.116 35.6377 25.5964 36.7215 25.5964Z" fill="#303030"/>
</g>
<defs>
<clipPath id="clip0_102_615">
<rect width="53.2432" height="53.2432" fill="white" transform="translate(0.292725 0.432373)"/>
</clipPath>
</defs>
</svg>
